<svg width="23" height="22" viewBox="0 0 23 22" fill="none" xmlns="http://www.w3.org/2000/svg">
<path d="M0.5625 7.28906V1.23438C0.5625 0.584961 1.08496 0.0625 1.73438 0.0625H7.78906C8.11133 0.0625 8.375 0.326172 8.375 0.648438V2.60156C8.375 2.92383 8.11133 3.1875 7.78906 3.1875H3.6875V7.28906C3.6875 7.61133 3.42383 7.875 3.10156 7.875H1.14844C0.826172 7.875 0.5625 7.61133 0.5625 7.28906ZM14.625 0.648438V2.60156C14.625 2.92383 14.8887 3.1875 15.2109 3.1875H19.3125V7.28906C19.3125 7.61133 19.5762 7.875 19.8984 7.875H21.8516C22.1738 7.875 22.4375 7.61133 22.4375 7.28906V1.23438C22.4375 0.584961 21.915 0.0625 21.2656 0.0625H15.2109C14.8887 0.0625 14.625 0.326172 14.625 0.648438ZM21.8516 14.125H19.8984C19.5762 14.125 19.3125 14.3887 19.3125 14.7109V18.8125H15.2109C14.8887 18.8125 14.625 19.0762 14.625 19.3984V21.3516C14.625 21.6738 14.8887 21.9375 15.2109 21.9375H21.2656C21.915 21.9375 22.4375 21.415 22.4375 20.7656V14.7109C22.4375 14.3887 22.1738 14.125 21.8516 14.125ZM8.375 21.3516V19.3984C8.375 19.0762 8.11133 18.8125 7.78906 18.8125H3.6875V14.7109C3.6875 14.3887 3.42383 14.125 3.10156 14.125H1.14844C0.826172 14.125 0.5625 14.3887 0.5625 14.7109V20.7656C0.5625 21.415 1.08496 21.9375 1.73438 21.9375H7.78906C8.11133 21.9375 8.375 21.6738 8.375 21.3516Z" fill="white"/>
</svg>
