<svg width="43" height="28" viewBox="0 0 43 28" fill="none" xmlns="http://www.w3.org/2000/svg">
<path fill-rule="evenodd" clip-rule="evenodd" d="M0 14C0 13.6022 0.158035 13.2206 0.43934 12.9393C0.720644 12.658 1.10218 12.5 1.5 12.5H36.879L27.438 3.062C27.1563 2.78034 26.9981 2.39833 26.9981 2C26.9981 1.60168 27.1563 1.21966 27.438 0.938002C27.7197 0.656342 28.1017 0.498108 28.5 0.498108C28.8983 0.498108 29.2803 0.656342 29.562 0.938002L41.562 12.938C41.7017 13.0773 41.8125 13.2429 41.8881 13.4251C41.9638 13.6073 42.0027 13.8027 42.0027 14C42.0027 14.1973 41.9638 14.3927 41.8881 14.5749C41.8125 14.7571 41.7017 14.9227 41.562 15.062L29.562 27.062C29.2803 27.3437 28.8983 27.5019 28.5 27.5019C28.1017 27.5019 27.7197 27.3437 27.438 27.062C27.1563 26.7803 26.9981 26.3983 26.9981 26C26.9981 25.6017 27.1563 25.2197 27.438 24.938L36.879 15.5H1.5C1.10218 15.5 0.720644 15.342 0.43934 15.0607C0.158035 14.7794 0 14.3978 0 14Z" fill="#02004B"/>
</svg>
