<svg width="43" height="28" viewBox="0 0 43 28" fill="none" xmlns="http://www.w3.org/2000/svg">
<path fill-rule="evenodd" clip-rule="evenodd" d="M43.0002 14C43.0002 13.6022 42.8422 13.2206 42.5609 12.9393C42.2796 12.658 41.8981 12.5 41.5002 12.5H6.12124L15.5622 3.062C15.7017 2.92254 15.8123 2.75697 15.8878 2.57475C15.9633 2.39254 16.0021 2.19723 16.0021 2C16.0021 1.80277 15.9633 1.60747 15.8878 1.42525C15.8123 1.24303 15.7017 1.07747 15.5622 0.938002C15.4228 0.798539 15.2572 0.68791 15.075 0.612433C14.8928 0.536956 14.6975 0.498108 14.5002 0.498108C14.303 0.498108 14.1077 0.536956 13.9255 0.612433C13.7433 0.68791 13.5777 0.798539 13.4382 0.938002L1.43824 12.938C1.29855 13.0773 1.18772 13.2429 1.1121 13.4251C1.03648 13.6073 0.997559 13.8027 0.997559 14C0.997559 14.1973 1.03648 14.3927 1.1121 14.5749C1.18772 14.7571 1.29855 14.9227 1.43824 15.062L13.4382 27.062C13.5777 27.2015 13.7433 27.3121 13.9255 27.3876C14.1077 27.463 14.303 27.5019 14.5002 27.5019C14.6975 27.5019 14.8928 27.463 15.075 27.3876C15.2572 27.3121 15.4228 27.2015 15.5622 27.062C15.7017 26.9225 15.8123 26.757 15.8878 26.5748C15.9633 26.3925 16.0021 26.1972 16.0021 26C16.0021 25.8028 15.9633 25.6075 15.8878 25.4253C15.8123 25.243 15.7017 25.0775 15.5622 24.938L6.12124 15.5H41.5002C41.8981 15.5 42.2796 15.342 42.5609 15.0607C42.8422 14.7794 43.0002 14.3978 43.0002 14Z" fill="white"/>
</svg>
