<svg width="26" height="26" viewBox="0 0 26 26" fill="none" xmlns="http://www.w3.org/2000/svg">
<path d="M23.9375 17.2969V22.7656C23.9379 22.9196 23.9078 23.0722 23.8491 23.2145C23.7903 23.3569 23.704 23.4862 23.5951 23.5951C23.4862 23.704 23.3569 23.7903 23.2145 23.8491C23.0722 23.9078 22.9196 23.9379 22.7656 23.9375H17.2969C16.2524 23.9375 15.73 22.6729 16.4668 21.9356L18.2344 20.168L13 14.9336L7.76416 20.1729L9.53321 21.9356C10.27 22.6729 9.74756 23.9375 8.70313 23.9375H3.23438C3.08038 23.9379 2.92782 23.9078 2.78546 23.8491C2.64311 23.7903 2.51377 23.704 2.40488 23.5951C2.29598 23.4862 2.20968 23.3569 2.15092 23.2145C2.09216 23.0722 2.06212 22.9196 2.0625 22.7656V17.2969C2.0625 16.252 3.32666 15.7295 4.06446 16.4668L5.83155 18.2344L11.0693 13L5.83106 7.76075L4.06446 9.53321C3.32715 10.2705 2.0625 9.74805 2.0625 8.70313V3.23438C2.06212 3.08038 2.09216 2.92782 2.15092 2.78546C2.20968 2.64311 2.29598 2.51377 2.40488 2.40488C2.51377 2.29598 2.64311 2.20968 2.78546 2.15092C2.92782 2.09216 3.08038 2.06212 3.23438 2.0625H8.70313C9.74756 2.0625 10.27 3.32715 9.53321 4.06446L7.76563 5.83203L13 11.0664L18.2358 5.82715L16.4668 4.06446C15.73 3.32715 16.2524 2.0625 17.2969 2.0625H22.7656C22.9196 2.06212 23.0722 2.09216 23.2145 2.15092C23.3569 2.20968 23.4862 2.29598 23.5951 2.40488C23.704 2.51377 23.7903 2.64311 23.8491 2.78546C23.9078 2.92782 23.9379 3.08038 23.9375 3.23438V8.70313C23.9375 9.74805 22.6733 10.2705 21.9356 9.53321L20.1685 7.76563L14.9307 13L20.1689 18.2393L21.9356 16.4717C22.6729 15.7295 23.9375 16.252 23.9375 17.2969Z" fill="black"/>
</svg>
